<svg xmlns="http://www.w3.org/2000/svg" x="0px" y="0px" width="100" height="100" viewBox="0 0 100 100">
<circle cx="13" cy="29" r="2" fill="#78a0cf"></circle><circle cx="77" cy="13" r="1" fill="#f1bc19"></circle><circle cx="50" cy="50" r="37" fill="#cee1f4"></circle><circle cx="83" cy="15" r="4" fill="#f1bc19"></circle><circle cx="87" cy="24" r="2" fill="#78a0cf"></circle><circle cx="81" cy="76" r="2" fill="#fbcd59"></circle><circle cx="15" cy="63" r="4" fill="#fbcd59"></circle><circle cx="25" cy="87" r="2" fill="#78a0cf"></circle><circle cx="18.5" cy="53.5" r="2.5" fill="#fff"></circle><circle cx="21" cy="67" r="1" fill="#f1bc19"></circle><circle cx="80" cy="34" r="1" fill="#fff"></circle><circle cx="50" cy="50" r="23.958" fill="#eeecd9"></circle><path fill="#472b29" d="M49.999,26.4C63.013,26.4,73.6,36.986,73.6,49.999C73.6,63.013,63.013,73.6,49.999,73.6	C36.987,73.6,26.4,63.013,26.4,50S36.987,26.4,49.999,26.4 M49.999,25C36.214,25,25,36.215,25,50s11.214,25,24.999,25	S75,63.784,75,49.999C75,36.214,63.785,25,49.999,25L49.999,25z"></path><g><polygon fill="#ee3e54" points="61.917,44.917 57.875,49.688 55.208,47.437 50,43.042 44.792,47.437 42.125,49.688 38.083,44.917 44.792,39.26 50,34.865 55.208,39.26"></polygon></g><g><path fill="#472b29" d="M49.985,70.817c-9.639,0-17.952-6.552-20.216-15.934c-0.389-1.609-0.586-3.258-0.586-4.899 c0-0.74,0.041-1.489,0.12-2.224c0.03-0.275,0.278-0.472,0.551-0.443c0.275,0.03,0.473,0.276,0.443,0.551 c-0.076,0.7-0.114,1.412-0.114,2.116c0,1.562,0.188,3.131,0.558,4.665c2.156,8.931,10.07,15.168,19.244,15.168 c0.833,0,1.676-0.054,2.503-0.16c0.277-0.031,0.525,0.159,0.56,0.433c0.035,0.274-0.159,0.524-0.433,0.56 C51.745,70.76,50.86,70.817,49.985,70.817z M61.775,67.059c-0.156,0-0.311-0.073-0.408-0.21c-0.16-0.225-0.108-0.537,0.117-0.697 c1.859-1.323,3.466-2.948,4.775-4.83c0.158-0.227,0.469-0.284,0.696-0.125c0.227,0.158,0.283,0.47,0.125,0.696 c-1.375,1.976-3.063,3.683-5.016,5.073C61.977,67.028,61.875,67.059,61.775,67.059z M68.195,59.528 c-0.075,0-0.151-0.017-0.222-0.052c-0.247-0.123-0.348-0.423-0.225-0.67c0.145-0.291,0.283-0.586,0.413-0.884 c0.11-0.253,0.404-0.37,0.659-0.257c0.253,0.111,0.368,0.406,0.257,0.659c-0.137,0.313-0.282,0.623-0.434,0.928 C68.556,59.427,68.379,59.528,68.195,59.528z M70.249,48.86c-0.258,0-0.476-0.198-0.498-0.459c-0.084-1.02-0.249-2.046-0.491-3.05 c-2.156-8.931-10.07-15.168-19.244-15.168c-1.562,0-3.131,0.188-4.665,0.558c-4.776,1.153-8.933,4.02-11.704,8.073 c-0.156,0.228-0.466,0.286-0.695,0.13c-0.228-0.156-0.287-0.467-0.13-0.695c2.911-4.258,7.277-7.27,12.294-8.48 c1.609-0.389,3.258-0.586,4.899-0.586c9.638,0,17.951,6.552,20.216,15.934c0.254,1.054,0.428,2.131,0.517,3.202 c0.022,0.275-0.182,0.517-0.458,0.54C70.276,48.859,70.263,48.86,70.249,48.86z"></path></g><path fill="#2d80d3" d="M62.656,58.219c-1.813,2.802-4.427,4.865-7.448,5.969c-1.635,0.604-3.385,0.927-5.208,0.927	s-3.573-0.313-5.208-0.927c-3.01-1.094-5.625-3.156-7.448-5.958l5.083-3.646c0.625,1.031,1.427,1.896,2.365,2.583	c1.479,1.094,3.292,1.698,5.208,1.698s3.729-0.604,5.208-1.698c0.938-0.688,1.74-1.552,2.365-2.583L62.656,58.219z"></path><polygon fill="#fc5672" points="44.792,39.26 44.792,47.437 42.125,49.688 38.083,44.917"></polygon><path fill="#6869ad" d="M44.792,57.167v7.021c-3.01-1.094-5.625-3.156-7.448-5.958l5.083-3.646	C43.052,55.615,43.854,56.479,44.792,57.167z"></path><polygon fill="#f47c22" points="57.875,49.688 55.208,47.437 55.208,39.26 61.917,44.917"></polygon><path fill="#00a5a5" d="M62.656,58.219c-1.813,2.802-4.427,4.865-7.448,5.969v-7.021c0.938-0.688,1.74-1.552,2.365-2.583	L62.656,58.219z"></path><g><path fill="#472b29" d="M57.88,49.939c-0.057,0-0.114-0.02-0.161-0.059L50,43.366l-1.129,0.953 c-0.104,0.089-0.263,0.077-0.352-0.03c-0.089-0.105-0.076-0.263,0.03-0.352l1.291-1.089c0.093-0.079,0.229-0.079,0.322,0 l7.689,6.489l3.708-4.395L50,35.188l-11.559,9.755l3.708,4.395l4.106-3.465c0.105-0.088,0.263-0.076,0.352,0.03 s0.076,0.263-0.03,0.352l-4.297,3.626c-0.105,0.089-0.263,0.077-0.352-0.03l-4.031-4.776c-0.043-0.051-0.064-0.116-0.058-0.182 c0.005-0.066,0.037-0.127,0.088-0.17l11.912-10.053c0.093-0.079,0.229-0.079,0.322,0l11.912,10.053 c0.051,0.042,0.083,0.104,0.088,0.17c0.006,0.066-0.015,0.131-0.058,0.182l-4.031,4.776C58.022,49.909,57.951,49.939,57.88,49.939 z"></path></g><g><path fill="#472b29" d="M50,65.364c-5.206,0-10.014-2.615-12.861-6.996c-0.073-0.112-0.045-0.261,0.063-0.339l5.076-3.652 c0.057-0.041,0.127-0.055,0.196-0.042c0.068,0.014,0.128,0.056,0.164,0.115c0.893,1.472,2.17,2.629,3.695,3.349 c0.125,0.059,0.179,0.208,0.12,0.333c-0.059,0.125-0.21,0.178-0.333,0.12c-1.534-0.723-2.832-1.865-3.767-3.313l-4.665,3.356 c2.77,4.119,7.354,6.57,12.311,6.57c1.833,0,3.619-0.327,5.308-0.972c0.129-0.049,0.274,0.015,0.323,0.144 c0.049,0.129-0.015,0.273-0.144,0.323C53.74,65.026,51.895,65.364,50,65.364z M58.073,63.031c-0.083,0-0.163-0.041-0.211-0.116 c-0.074-0.117-0.04-0.271,0.077-0.345c0.276-0.176,0.547-0.36,0.812-0.555c0.111-0.081,0.267-0.058,0.35,0.054 c0.082,0.111,0.058,0.268-0.054,0.35c-0.273,0.201-0.553,0.392-0.839,0.574C58.166,63.019,58.119,63.031,58.073,63.031z M61.123,60.463c-0.06,0-0.121-0.021-0.168-0.065c-0.102-0.093-0.109-0.251-0.017-0.354c0.5-0.549,0.964-1.142,1.381-1.763 l-4.672-3.345c-1.693,2.621-4.532,4.176-7.646,4.176c-0.306,0-0.615-0.015-0.921-0.045c-0.137-0.014-0.237-0.136-0.224-0.274 c0.014-0.137,0.13-0.241,0.273-0.224c0.289,0.028,0.582,0.043,0.871,0.043c3.028,0,5.78-1.557,7.362-4.164 c0.036-0.059,0.096-0.101,0.164-0.115c0.07-0.013,0.139,0.001,0.196,0.042l5.084,3.639c0.108,0.078,0.137,0.227,0.064,0.339 c-0.465,0.717-0.991,1.399-1.562,2.027C61.259,60.436,61.191,60.463,61.123,60.463z"></path></g>
</svg>